<svg display='none' xmlns="http://www.w3.org/2000/svg">
    <symbol id="icon-admiral" viewBox="0 0 51.5 49.5">
      <path d="M50.9,0c-0.1,0-0.2,0-0.2,0c-2.3,7.7-2.9,17.1-9.4,20.6c-1.2-3.4-4.1-4.9-7.4-6.4c-2.1-0.9-4.5-2.6-6.6-2.6 c-0.5,0-1,0-1.5,0.3c-0.5-0.3-1-0.3-1.5-0.3c-2.1,0.1-4.5,1.7-6.6,2.6c-3.3,1.5-6.3,3-7.4,6.4C3.8,17.1,3.1,7.7,0.8,0 C0.8,0,0.7,0,0.6,0C0.3,0.7,0.2,1.6,0,2.4c0,1.9,0.5,21.5,1.9,28.4C3.2,37.2,8,41.7,12.7,44.7c3.3,2.1,8.5,4.8,13,4.8 c4.5,0,9.7-2.8,13-4.8c4.7-3,9.6-7.5,10.8-13.8c1.4-7,1.9-26.5,1.9-28.4C51.3,1.6,51.2,0.7,50.9,0z M36.9,28.1 c-0.2,1.6-1.7,3.4-3.4,3.5c-3,0.2-4.5-4.4-7.9-4.4c-3.4,0-4.9,4.5-7.9,4.4c-1.7-0.1-3.1-1.9-3.4-3.5c-0.3-1.9,0.6-4.6,1.7-5.6 c1.1-1.1,2.8-0.9,4.7-1.2c2-0.3,3.8-0.9,4.9-1.9c0,0,0,0,0,0c1.1,1.1,2.8,1.7,4.9,1.9c1.9,0.3,3.6,0.1,4.7,1.2 C36.3,23.5,37.3,26.2,36.9,28.1z"/>
    </symbol>
    <symbol id="icon-lumberjack" viewBox="0 0 57.7 68.6">
      <path d="M51.6,22.2c0.1-1.7,0.5-3.5,0.7-5.4C53,11.4,53.9,5.2,52.2,0C52.1,0,52,0,52,0c-1.4,3.8-1.3,8.4-2.2,12.4 c-0.7,3-1.8,5.7-3.2,7.6c-0.5,0.7-1.1,1.5-1.9,1.8c-0.7-3.9-4.3-4.9-7.7-6.4c-2.1-0.9-4-2-6.1-2.2c-0.8-0.1-1.5,0.2-2,0.2 s-1.2-0.3-2-0.2c-2.1,0.1-4,1.3-6.1,2.2c-3.4,1.4-7,2.4-7.7,6.4c-0.9-0.3-1.4-1.1-1.9-1.8c-1.5-1.9-2.6-4.6-3.2-7.6 C7,8.4,7,3.8,5.7,0C5.6,0,5.5,0,5.5,0C3.8,5.2,4.7,11.4,5.4,16.8c0.2,1.9,0.6,3.7,0.7,5.4c0.8,11.1-7,23.1-6,28.9 c0.9,7.5,8.4,9.4,14.2,12.4c4.3,2.2,8.3,5,13.3,5.2c0.4,0,0.9,0,1.3,0l0,0c0.4,0,0.9,0,1.3,0c5-0.2,9-2.9,13.3-5.2 c5.8-3,13.2-4.8,14.2-12.4C58.6,45.3,50.8,33.3,51.6,22.2z M28.8,26L28.8,26L28.8,26L28.8,26L28.8,26c-2.5,0-5.1-0.1-7.2-0.5 c0.7-2.1,4-1.6,7.1-1.6h0.1h0.1c3,0,6.4-0.5,7.1,1.6C33.9,25.9,31.4,26,28.8,26z"/>
    </symbol>
    <symbol id="icon-polarman" viewBox="0 0 62.4 78.5">
      <path d="M62.4,42c0-5.2-2.4-7.8-3.6-10c-0.9-1.6-4-10.8-4.2-17.6C54.5,9.5,52.9,2,51.7,0c-0.9,0-1.5,7.8-2.3,11.6	c-1.4,7-3.8,8.9-4.4,9c-0.8-2.8-4.1-7.4-13.7-7.7c0,0-0.1,0-0.1,0c0,0-0.1,0-0.1,0c-9.6,0.4-12.9,4.9-13.7,7.7c-0.7-0.1-3-2-4.4-9	C12.2,7.8,11.5,0,10.7,0C9.5,2,7.9,9.5,7.8,14.4c-0.2,6.9-3.3,16-4.2,17.6C2.4,34.2,0,36.8,0,42c0,3.7,5.2,7.2,5.6,11.4	c0.1,1.2,0,2.3,0.1,3.4c2,17.5,17.9,21.7,25.4,21.7l0,0l0,0c7.6,0,23.4-4.2,25.4-21.7c0.2-1,0-2.1,0.1-3.4	C57.2,49.2,62.4,45.7,62.4,42z M33.2,26.8c-0.7-0.1-3.4-0.1-4.1,0c-1.7,0.3-5.8,1-5.8-1.1c0-1.1,6.7-2.3,7.8-2.3	c1.1,0,7.8,1.2,7.8,2.3C39,27.7,35,27.1,33.2,26.8z"/>
    </symbol>
    <symbol id="icon-boyar" viewBox="0 0 57 97.7">
      <path d="M51.1,15.2C50.7,9.8,50.5,4.4,48.6,0c-0.8,0-1.5,7.3-2.3,10.9c-1.5,7.1-3.7,8.3-4.4,8.3c-0.9-3.9-4.4-4.2-7.8-5.9 c-1.2-0.6-2.3-1.1-3.6-1.2c-0.7-0.1-1.3,0.1-2,0.1s-1.3-0.2-2-0.1c-1.3,0.1-2.4,0.6-3.6,1.2c-3.4,1.6-6.9,2-7.8,5.9 c-0.7,0-3-1.1-4.4-8.3C9.9,7.3,9.2,0,8.4,0C6.5,4.4,6.3,9.8,5.9,15.2C5,38.8,0,51.5,0,62.4c0,26.1,11.7,35.3,28.5,35.3 S57,88.5,57,62.4C57,51.5,52,38.8,51.1,15.2z M34.4,25c-2.8,1.2-5.4-0.7-5.9-0.7c0,0,0,0-0.1,0c0,0,0,0-0.1,0 c-0.5,0-3.1,1.9-5.9,0.7c-0.8-3.6,2.4-4,5.9-3.9C32,20.9,35.2,21.4,34.4,25z"/>
    </symbol>
    <symbol id="icon-sage" viewBox="0 0 44.7 104.8">
      <path d="M43.4,0c0,0-0.1,0-0.1,0c-2.8,21.5-5.4,22.6-7,22.7c-1.4,0.1-3.6-1.8-4.9-2.5c-1.5-0.9-4.1-2.5-9.1-2.5s-7.6,1.7-9.1,2.5	c-1.3,0.7-3.5,2.6-4.9,2.5c-1.6-0.1-4.1-1.2-7-22.7c0,0-0.1,0-0.1,0c-2.1,12.2-1.6,50.2,1.2,63.6c2.6,18.5,10.1,35.1,13.4,39.6	c0.7,1,3.5,1.6,6.4,1.6c2.9,0,5.7-0.5,6.4-1.6c3.3-4.5,10.8-21.1,13.4-39.6C44.9,50.2,45.5,12.2,43.4,0z M22.3,28.2	c-3.4,0-6.7,0.2-10.1,0.5c1.1-1.8,9-3.2,10.1-3.4c1.1,0.2,9,1.7,10.1,3.4C29,28.3,25.7,28.2,22.3,28.2z"/>
    </symbol>
</svg>
