<?xml version="1.0" encoding="utf-8"?>
<!-- Generator: Adobe Illustrator 24.1.2, SVG Export Plug-In . SVG Version: 6.00 Build 0)  -->
<svg version="1.1" id="Layer_1" xmlns="http://www.w3.org/2000/svg" xmlns:xlink="http://www.w3.org/1999/xlink" x="0px" y="0px"
	 viewBox="0 0 57.7 68.6" style="enable-background:new 0 0 57.7 68.6;" xml:space="preserve">
<path d="M52.3,19.8c0.1-1.7,0.5-3.5,0.7-5.4C53.7,9,54.6,2.8,52.9-2.4c-0.1,0-0.2,0-0.2,0C51.3,1.4,51.4,6,50.5,10
	c-0.7,3-1.8,5.7-3.2,7.6c-0.5,0.7-1.1,1.5-1.9,1.8c-0.7-3.9-4.3-4.9-7.7-6.4c-2.1-0.9-4-2-6.1-2.2c-0.8-0.1-1.5,0.2-2,0.2
	c-0.5,0-1.2-0.3-2-0.2c-2.1,0.1-4,1.3-6.1,2.2c-3.4,1.4-7,2.4-7.7,6.4c-0.9-0.3-1.4-1.1-1.9-1.8c-1.5-1.9-2.6-4.6-3.2-7.6
	C7.7,6,7.7,1.4,6.4-2.4c-0.1,0-0.2,0-0.2,0C4.5,2.8,5.4,9,6.1,14.4c0.2,1.9,0.6,3.7,0.7,5.4c0.8,11.1-7,23.1-6,28.9
	c0.9,7.5,8.4,9.4,14.2,12.4c4.3,2.2,8.3,5,13.3,5.2c0.4,0,0.9,0,1.3,0c0,0,0,0,0,0c0.4,0,0.9,0,1.3,0c5-0.2,9-2.9,13.3-5.2
	c5.8-3,13.2-4.8,14.2-12.4C59.3,42.9,51.5,30.9,52.3,19.8z M29.5,23.6L29.5,23.6L29.5,23.6L29.5,23.6L29.5,23.6
	c-2.5,0-5.1-0.1-7.2-0.5c0.7-2.1,4-1.6,7.1-1.6c0,0,0.1,0,0.1,0c0,0,0.1,0,0.1,0c3,0,6.4-0.5,7.1,1.6C34.6,23.5,32.1,23.6,29.5,23.6
	z"/>
</svg>
