<?xml version="1.0" encoding="utf-8"?>
<!-- Generator: Adobe Illustrator 24.1.2, SVG Export Plug-In . SVG Version: 6.00 Build 0)  -->
<svg version="1.1" id="Layer_2_1_" xmlns="http://www.w3.org/2000/svg" xmlns:xlink="http://www.w3.org/1999/xlink" x="0px" y="0px"
	 viewBox="0 0 320 142" style="enable-background:new 0 0 320 142;" xml:space="preserve">
<style type="text/css">
	.st0{fill:#FFFFFF;}
</style>
<g>
	<path class="st0" d="M160.9,25.3V4.8c0-0.6-0.4-1-1-1s-1,0.4-1,1v20.5c0.3,0,0.7,0,1,0C160.4,25.2,160.6,25.3,160.9,25.3z"/>
	<path class="st0" d="M134.9,32.2c0.6-0.3,1.1-0.7,1.7-1l-10.2-17.7c-0.3-0.5-0.9-0.6-1.4-0.4c-0.5,0.3-0.6,0.9-0.4,1.4L134.9,32.2z
		"/>
	<path class="st0" d="M99.6,38.5c-0.3,0.5-0.1,1.1,0.4,1.4l17.7,10.3c0.3-0.6,0.7-1.2,1-1.7L101,38.2C100.5,37.9,99.9,38,99.6,38.5z
		"/>
	<path class="st0" d="M195.5,12.3c-0.5-0.3-1.1-0.1-1.4,0.4l-10.8,18.6c0.6,0.3,1.2,0.7,1.7,1l10.8-18.6
		C196.3,13.2,196,12.6,195.5,12.3z"/>
	<path class="st0" d="M220.9,39.5c0.5-0.3,0.6-0.9,0.4-1.4c-0.3-0.5-0.9-0.6-1.4-0.4l-18.6,10.8c0.3,0.6,0.7,1.1,1,1.7L220.9,39.5z"
		/>
	<path class="st0" d="M111.6,73.6c0-0.3,0-0.7,0-1H90.1c-0.6,0-1,0.4-1,1s0.4,1,1,1h21.5C111.6,74.2,111.6,73.9,111.6,73.6z"/>
	<path class="st0" d="M229.9,72.6h-21.5c0,0.3,0,0.7,0,1s0,0.7,0,1h21.5c0.6,0,1-0.4,1-1S230.4,72.6,229.9,72.6z"/>
	<path class="st0" d="M219.9,107.2l-17.7-10.3c-0.3,0.6-0.7,1.2-1,1.7l17.7,10.3c0.2,0.1,0.3,0.1,0.5,0.1c0.3,0,0.7-0.2,0.9-0.5
		C220.5,108.1,220.4,107.5,219.9,107.2z"/>
	<path class="st0" d="M99,107.7c-0.5,0.3-0.6,0.9-0.4,1.4c0.2,0.3,0.5,0.5,0.9,0.5c0.2,0,0.3,0,0.5-0.1l18.6-10.8
		c-0.3-0.6-0.7-1.1-1-1.7L99,107.7z"/>
	<path class="st0" d="M185,114.9c-0.6,0.3-1.1,0.7-1.7,1l10.2,17.7c0.2,0.3,0.5,0.5,0.9,0.5c0.2,0,0.3,0,0.5-0.1
		c0.5-0.3,0.6-0.9,0.4-1.4L185,114.9z"/>
	<path class="st0" d="M124,133.5c-0.3,0.5-0.1,1.1,0.4,1.4c0.2,0.1,0.3,0.1,0.5,0.1c0.3,0,0.7-0.2,0.9-0.5l10.8-18.6
		c-0.6-0.3-1.2-0.7-1.7-1L124,133.5z"/>
	<path class="st0" d="M158.9,121.9v20.5c0,0.6,0.4,1,1,1s1-0.4,1-1v-20.5c-0.3,0-0.7,0-1,0S159.4,121.9,158.9,121.9z"/>
	<path class="st0" d="M193.9,55.7c0.7-0.4,1-1.3,0.5-2c-0.4-0.7-1.3-1-2-0.5L164,69.6l0,0c-1-1-2.4-1.6-4-1.6c-1.5,0-2.9,0.6-4,1.6
		l-20.3-11.8c-0.7-0.4-1.6-0.2-2.1,0.5c-0.4,0.7-0.2,1.6,0.5,2.1l20.3,11.8c-0.1,0.5-0.2,0.9-0.2,1.4c0,3.1,2.5,5.7,5.7,5.7
		c3.1,0,5.7-2.5,5.7-5.7c0-0.5-0.1-1-0.2-1.4L193.9,55.7z M164.4,70.1L164.4,70.1L164.4,70.1z M164.9,70.7L164.9,70.7L164.9,70.7z
		 M155.1,70.7C155.1,70.7,155,70.7,155.1,70.7C155,70.7,155.1,70.7,155.1,70.7z M155.5,70.1L155.5,70.1L155.5,70.1z M159.9,76.2
		c-1.5,0-2.7-1.2-2.7-2.7s1.2-2.7,2.7-2.7s2.7,1.2,2.7,2.7S161.4,76.2,159.9,76.2z"/>
</g>
</svg>
